# xmcd
#
# Track frame offsets:
#	150
#	2542
#	18057
#	30722
#	44668
#	59041
#	76728
#	92009
#	103801
#	114344
#	127594
#	147228
#	162498
#	175292
#	181935
#	202119
#
# Disc length: 2866 seconds
# Revision: 0
# Processed by: cddbd v1.5.2PL0 Copyright (c) Steve Scherf et al.
# Submitted via: dBpowerAMP V12.0
#
DISCID=cd0b3010
DTITLE=John Reischman and The Jaybirds - The Road West
DYEAR=2005
DGENRE=Country
TTITLE0=Roustabout
TTITLE1=Hop High My Lulu Gal
TTITLE2=Home Sweet Home
TTITLE3=Sandy Boys
TTITLE4=Travelin' the Road West
TTITLE5=In the Fall
TTITLE6=Deep Dark Sea
TTITLE7=Blackberry Bramble
TTITLE8=Liza Jane
TTITLE9=Old Reuben No. 1
TTITLE10=Allens Creek
TTITLE11=You'll Find Her Name Written There
TTITLE12=Troubles
TTITLE13=The Homecoming
TTITLE14=As Time Draws Near
TTITLE15=Crowberry
EXTD=
EXTT0=
EXTT1=
EXTT2=
EXTT3=
EXTT4=
EXTT5=
EXTT6=
EXTT7=
EXTT8=
EXTT9=
EXTT10=
EXTT11=
EXTT12=
EXTT13=
EXTT14=
EXTT15=
PLAYORDER=
